<svg id="Capa_1" enable-background="new 0 0 512.066 512.066" height="512" viewBox="0 0 512.066 512.066" width="512" xmlns="http://www.w3.org/2000/svg"><g><path d="m387.15 105.545c-8.883-5.576-19.14-8.642-30.222-9.19-.065-2.585-.169-4.823-.281-6.631-.422-6.827-6.112-12.175-12.954-12.175h-227.334c-6.845 0-12.535 5.349-12.954 12.177-.692 11.221-1.275 40.663 8.232 71.643 1.216 3.96 5.418 6.185 9.37 4.969 3.96-1.215 6.185-5.411 4.97-9.371-2.861-9.323-4.732-18.502-5.934-27.003h219.97c-1.489 10.523-4.002 22.073-8.151 33.67-12.845 35.902-36.811 60.029-71.27 71.818h-61.155c-26.065-8.933-46.246-25.039-60.038-47.951-2.138-3.55-6.745-4.694-10.294-2.558s-4.693 6.745-2.558 10.294c10 16.611 22.944 30.037 38.646 40.215h-53.627c-7.025 0-12.741 5.716-12.741 12.741v6.923c0 16.968 13.805 30.773 30.773 30.773h4.05v9.199c0 13.191 10.732 23.924 23.924 23.924h144.901c13.191 0 23.924-10.732 23.924-23.924v-9.199h4.05c16.969 0 30.773-13.805 30.773-30.773v-6.923c0-7.025-5.716-12.741-12.741-12.741h-53.621c3.963-2.569 7.751-5.344 11.361-8.323 18.001-.442 36.24-3.614 53.016-9.253 14.727-4.95 26.865-12.156 36.079-21.418 13.06-13.129 19.617-31.819 17.541-49.998-1.96-17.208-11.09-31.738-25.705-40.915zm-75.75 189.541c0 4.92-4.003 8.924-8.924 8.924h-144.901c-4.921 0-8.924-4.003-8.924-8.924v-9.199h162.749zm34.824-44.636v4.664c0 8.697-7.076 15.773-15.773 15.773h-200.849c-8.697 0-15.773-7.076-15.773-15.773v-4.664zm-.238-81.765c3.544-9.906 5.985-19.764 7.655-29.068 3.704.03 7.388.734 10.448 2.655 3.318 2.083 5.23 5.147 5.683 9.105.594 5.205-1.351 10.624-5.201 14.496-4.357 4.381-10.98 8.148-19.15 10.895-.991.333-1.992.645-2.993.955 1.262-2.944 2.454-5.952 3.558-9.038zm-227.486-53.723c-.622-9.489-.479-17.332-.229-22.415h223.51c.256 5.188.394 13.009-.221 22.415zm266.183 70.915c-7.556 7.595-17.725 13.577-30.224 17.778-10.218 3.435-21.051 5.848-32.015 7.214 3.937-4.771 7.564-9.88 10.859-15.32 5.745-1.199 11.401-2.716 16.898-4.563 10.367-3.485 19.014-8.511 25.006-14.535 7.036-7.074 10.576-17.083 9.469-26.775-.966-8.468-5.444-15.609-12.609-20.107-5.108-3.208-10.756-4.582-16.3-4.879.501-4.728.82-9.199 1.005-13.317 8.306.499 15.899 2.791 22.403 6.876 10.675 6.704 17.346 17.326 18.782 29.911 1.562 13.691-3.4 27.791-13.274 37.717z"/><path d="m452.879 0h-393.691c-23.332 0-42.313 18.981-42.313 42.313v427.441c0 23.331 18.981 42.313 42.313 42.313h262.369c4.143 0 7.5-3.358 7.5-7.5s-3.357-7.5-7.5-7.5h-262.369c-15.061 0-27.313-12.252-27.313-27.313v-427.441c0-15.061 12.252-27.313 27.313-27.313h393.691c15.061 0 27.313 12.252 27.313 27.313v427.441c0 15.06-12.252 27.313-27.313 27.313h-96.174c-4.143 0-7.5 3.358-7.5 7.5s3.357 7.5 7.5 7.5h96.174c23.331 0 42.313-18.981 42.313-42.313v-427.441c-.001-23.332-18.982-42.313-42.313-42.313z"/><path d="m458.524 453.087v-394.108c0-12.065-9.815-21.881-21.881-21.881h-361.22c-12.065 0-21.881 9.816-21.881 21.881v394.107c0 12.065 9.815 21.881 21.881 21.881h361.221c12.065.001 21.88-9.815 21.88-21.88zm-389.982 0v-394.108c0-3.794 3.087-6.881 6.881-6.881h361.221c3.794 0 6.881 3.087 6.881 6.881v394.107c0 3.794-3.087 6.881-6.881 6.881h-361.221c-3.794.001-6.881-3.086-6.881-6.88z"/><path d="m247.248 350.143c-.025-.068-.052-.136-.08-.204-1.425-3.467-4.767-5.706-8.514-5.706-.003 0-.005 0-.008 0-3.751.003-7.093 2.248-8.514 5.72-.023.057-28.337 74.396-28.337 74.396-1.475 3.871.469 8.204 4.339 9.678 3.869 1.472 8.204-.468 9.679-4.339l5.201-13.655h35.068l5.145 13.634c1.133 3.003 3.987 4.854 7.018 4.854.88 0 1.775-.156 2.647-.485 3.875-1.463 5.831-5.79 4.368-9.665zm-20.521 50.89 11.901-31.248 11.793 31.248z"/><path d="m332.52 343.671h-30.29c-4.143 0-7.5 3.358-7.5 7.5v74.734c0 4.142 3.357 7.5 7.5 7.5s7.5-3.358 7.5-7.5v-30.575h20.384c4.143 0 7.5-3.358 7.5-7.5s-3.357-7.5-7.5-7.5h-20.384v-21.659h22.79c4.143 0 7.5-3.358 7.5-7.5s-3.358-7.5-7.5-7.5z"/><path d="m393.898 358.807c4.143 0 7.5-3.358 7.5-7.5s-3.357-7.5-7.5-7.5h-31.433c-4.143 0-7.5 3.358-7.5 7.5v74.598c0 4.142 3.357 7.5 7.5 7.5h31.433c4.143 0 7.5-3.358 7.5-7.5s-3.357-7.5-7.5-7.5h-23.933v-22.299h21.615c4.143 0 7.5-3.358 7.5-7.5s-3.357-7.5-7.5-7.5h-21.615v-22.299z"/><path d="m184.347 409.534c-3.173-2.664-7.903-2.249-10.566.923-.718.855-1.491 1.654-2.299 2.374-4.153 3.699-9.426 5.575-15.671 5.575-16.621 0-30.143-13.522-30.143-30.143s13.521-30.143 30.143-30.143c6.041 0 11.867 1.778 16.847 5.143 3.435 2.321 8.096 1.417 10.414-2.016 2.318-3.432 1.416-8.094-2.016-10.413-7.47-5.047-16.199-7.714-25.245-7.714-24.892 0-45.143 20.251-45.143 45.143s20.251 45.143 45.143 45.143c9.894 0 18.763-3.241 25.647-9.374 1.348-1.2 2.63-2.522 3.813-3.931 2.662-3.173 2.249-7.904-.924-10.567z"/></g></svg>