<svg id="Capa_1" enable-background="new 0 0 512 512" height="512" viewBox="0 0 512 512" width="512" xmlns="http://www.w3.org/2000/svg"><g><g><g fill="#ffcf5d"><path d="m106.265 163.167h-74.47v-88.167c0-4.142 3.358-7.5 7.5-7.5h59.47c4.142 0 7.5 3.358 7.5 7.5z"/><path d="m210.735 163.167h-74.47v-88.167c0-4.142 3.358-7.5 7.5-7.5h59.47c4.142 0 7.5 3.358 7.5 7.5z"/><path d="m315.205 163.167h-74.47v-88.167c0-4.142 3.358-7.5 7.5-7.5h59.47c4.142 0 7.5 3.358 7.5 7.5z"/></g><path d="m98.765 67.5h-22.5v65.667h-44.47v30h74.47v-88.167c0-4.142-3.358-7.5-7.5-7.5z" fill="#ffb545"/><path d="m203.235 67.5h-22.5v65.667h-44.47v30h74.47v-88.167c0-4.142-3.358-7.5-7.5-7.5z" fill="#ffb545"/><path d="m307.705 67.5h-22.5v65.667h-44.47v30h74.47v-88.167c0-4.142-3.358-7.5-7.5-7.5z" fill="#ffb545"/></g><g fill="#95d6a4"><path d="m386.455 97.5v-22.5c0-4.142-3.358-7.5-7.5-7.5h-15c-4.142 0-7.5 3.358-7.5 7.5v22.5c-6.213 0-11.25 5.037-11.25 11.25v54.417h52.5v-54.417c0-6.214-5.037-11.25-11.25-11.25z"/><path d="m468.955 97.5v-22.5c0-4.142-3.358-7.5-7.5-7.5h-15c-4.142 0-7.5 3.358-7.5 7.5v22.5c-6.213 0-11.25 5.037-11.25 11.25v54.417h52.5v-54.417c0-6.214-5.037-11.25-11.25-11.25z"/></g><g><path d="m241.001 223.166h-44.47c-8.284 0-15 6.716-15 15 0-8.284-6.716-15-15-15h-44.47c-8.284 0-15 6.716-15 15 0-8.284-6.716-15-15-15h-44.47c-8.284 0-15 6.716-15 15v80.667h223.41v-80.667c0-8.284-6.716-15-15-15z" fill="#5c87bd"/><path d="m241.001 223.166h-15v65.667h-44.47v-50.667c0-8.284-6.716-15-15-15h-15v65.667h-44.47v-50.667c0-8.284-6.716-15-15-15h-15v65.667h-44.47v30h223.41v-80.667c0-8.284-6.716-15-15-15z" fill="#456ea2"/></g><g><path d="m464.409 243.168h-34.469c-8.284 0-15 6.716-15 15 0-8.284-6.716-15-15-15h-34.47c-8.284 0-15 6.716-15 15 0-8.284-6.716-15-15-15h-34.469c-8.284 0-15 6.716-15 15v60.666h193.408v-60.666c0-8.285-6.716-15-15-15z" fill="#fff9eb"/><path d="m464.409 243.168h-15v45.666h-34.469v-30.666c0-8.284-6.716-15-15-15h-15v45.666h-34.47v-30.666c0-8.284-6.716-15-15-15h-15v45.666h-34.469v30h193.408v-60.666c0-8.285-6.716-15-15-15z" fill="#d3cdbf"/></g><g><path d="m350.47 411.667v-17.833c0-8.284-6.716-15-15-15h-49.47c-8.284 0-15 6.716-15 15 0-8.284-6.716-15-15-15h-49.47c-8.284 0-15 6.716-15 15 0-8.284-6.716-15-15-15h-49.47c-8.284 0-15 6.716-15 15 0-8.284-6.716-15-15-15h-49.47c-8.284 0-15 6.716-15 15v17.833c0 8.284 6.716 15 15 15-8.284 0-15 6.716-15 15v32.833h79.47 79.47 79.47 79.47v-32.833c0-8.284-6.716-15-15-15 8.285 0 15-6.716 15-15z" fill="#8b9ba9"/><path d="m350.47 419.167v-25.333c0-8.284-6.716-15-15-15h-15v17.833h-49.47v-2.833c0-8.284-6.716-15-15-15h-15v17.833h-49.47v-2.833c0-8.284-6.716-15-15-15h-15v17.833h-49.47v-2.833c0-8.284-6.716-15-15-15h-15v17.833h-49.47v15c0 8.284 6.716 15 15 15h34.47v17.833h-49.47v30h317.88v-32.833c0-8.284-6.716-15-15-15h7.5c4.142 0 7.5-3.358 7.5-7.5zm-188.94 25.333h-49.47v-17.833h49.47zm79.47 0h-49.47v-17.833h49.47zm79.47 0h-49.47v-17.833h49.47z" fill="#6c7a88"/></g><path d="m442.705 408.833v-22.5c0-4.142-3.358-7.5-7.5-7.5h-15c-4.142 0-7.5 3.358-7.5 7.5v22.5c-6.213 0-11.25 5.037-11.25 11.25v54.417h52.5v-54.417c0-6.213-5.037-11.25-11.25-11.25z" fill="#95d6a4"/><g fill="#ce795f"><path d="m497 7.5h-482c-4.142 0-7.5 3.358-7.5 7.5v15c0 4.142 3.358 7.5 7.5 7.5h482c4.142 0 7.5-3.358 7.5-7.5v-15c0-4.142-3.358-7.5-7.5-7.5z"/><path d="m497 474.5h-482c-4.142 0-7.5 3.358-7.5 7.5v15c0 4.142 3.358 7.5 7.5 7.5h482c4.142 0 7.5-3.358 7.5-7.5v-15c0-4.142-3.358-7.5-7.5-7.5z"/><path d="m497 163.167h-482c-4.142 0-7.5 3.358-7.5 7.5v15c0 4.142 3.358 7.5 7.5 7.5h482c4.142 0 7.5-3.358 7.5-7.5v-15c0-4.142-3.358-7.5-7.5-7.5z"/><path d="m497 318.833h-482c-4.142 0-7.5 3.358-7.5 7.5v15c0 4.142 3.358 7.5 7.5 7.5h482c4.142 0 7.5-3.358 7.5-7.5v-15c0-4.142-3.358-7.5-7.5-7.5z"/></g><g><path d="m497 0h-482c-8.27 0-15 6.73-15 15v15c0 8.27 6.73 15 15 15h452c4.14 0 7.5-3.36 7.5-7.5s-3.36-7.5-7.5-7.5h-452v-15h482v15c-4.141 0-7.5 3.37-7.5 7.5 0 4.14 3.359 7.5 7.5 7.5 7.729-.01 14.14-5.81 14.92-13.47.01-.09.02-.17.03-.26.029-.44.05-.86.05-1.27v-15c0-8.27-6.73-15-15-15z"/><path d="m497 467h-35.545v-46.917c0-7.674-4.634-14.286-11.25-17.184v-24.066c0-4.142-3.357-7.5-7.5-7.5h-30c-4.143 0-7.5 3.358-7.5 7.5v24.066c-6.616 2.898-11.25 9.51-11.25 17.184v46.917h-35.984v-25.333c0-5.758-2.177-11.016-5.748-15 3.571-3.984 5.748-9.242 5.748-15v-17.833c0-12.407-10.094-22.5-22.5-22.5h-49.471c-5.758 0-11.016 2.177-15 5.747-3.984-3.571-9.241-5.747-15-5.747h-49.47c-5.758 0-11.016 2.177-15 5.748-3.984-3.571-9.242-5.748-15-5.748h-49.47c-5.758 0-11.016 2.177-15 5.748-3.984-3.571-9.242-5.748-15-5.748h-49.47c-12.407 0-22.5 10.093-22.5 22.5v17.833c0 5.758 2.177 11.016 5.747 15-3.571 3.984-5.747 9.242-5.747 15v25.333h-10.09c-8.27 0-15 6.73-15 15v15c0 .43.02.86.05 1.27.32 3.74 2.02 7.21 4.78 9.75 2.77 2.56 6.38 3.97 10.17 3.98 4.14 0 7.5-3.36 7.5-7.5 0-4.13-3.36-7.49-7.49-7.5-.01 0-.01-.01-.01-.01v-14.99h17.591 79.47 79.47 79.469 79.471 50.984 52.5 43.045v15h-452c-4.14 0-7.5 3.36-7.5 7.5s3.36 7.5 7.5 7.5h452c8.27 0 15-6.73 15-15v-15c0-8.27-6.73-15-15-15zm-211-80.667h49.471c4.136 0 7.5 3.364 7.5 7.5v17.833c0 4.136-3.364 7.5-7.5 7.5h-56.971v-25.333c0-4.136 3.364-7.5 7.5-7.5zm-79.469 0h49.469c4.135 0 7.5 3.364 7.5 7.5v25.333h-64.469v-25.333c0-4.136 3.364-7.5 7.5-7.5zm-86.97 47.834h64.47v32.833h-64.47zm7.5-47.834h49.47c4.136 0 7.5 3.364 7.5 7.5v25.333h-64.47v-25.333c0-4.136 3.364-7.5 7.5-7.5zm-86.97 7.5c0-4.136 3.364-7.5 7.5-7.5h49.47c4.136 0 7.5 3.364 7.5 7.5v25.333h-56.97c-4.136 0-7.5-3.364-7.5-7.5zm0 73.167v-25.333c0-4.136 3.364-7.5 7.5-7.5h56.97v32.833zm158.94-32.833h64.469v32.833h-64.469zm79.469 32.833v-32.833h56.971c4.136 0 7.5 3.364 7.5 7.5v25.333zm130.455 0v-46.917c0-2.068 1.683-3.75 3.75-3.75 4.143 0 7.5-3.358 7.5-7.5v-22.5h15v22.5c0 4.142 3.357 7.5 7.5 7.5 2.067 0 3.75 1.682 3.75 3.75v46.917z"/><path d="m497 155.67h-9.295v-46.92c0-7.674-4.634-14.286-11.25-17.184v-24.066c0-4.142-3.357-7.5-7.5-7.5h-30c-4.143 0-7.5 3.358-7.5 7.5v24.066c-6.616 2.898-11.25 9.51-11.25 17.184v46.92h-15v-46.92c0-7.674-4.634-14.286-11.25-17.184v-24.066c0-4.142-3.357-7.5-7.5-7.5h-30c-4.143 0-7.5 3.358-7.5 7.5v24.066c-6.616 2.898-11.25 9.51-11.25 17.184v46.92h-15v-88.17c0-4.142-3.357-7.5-7.5-7.5h-74.47c-4.142 0-7.5 3.358-7.5 7.5v88.17h-15v-88.17c0-4.142-3.358-7.5-7.5-7.5h-74.47c-4.142 0-7.5 3.358-7.5 7.5v88.17h-15v-88.17c0-4.142-3.358-7.5-7.5-7.5h-74.47c-4.142 0-7.5 3.358-7.5 7.5v88.17h-9.295c-8.27 0-15 6.73-15 15v15c0 .43.02.86.05 1.27.32 3.74 2.02 7.2 4.78 9.75 2.77 2.56 6.38 3.97 10.17 3.98 4.14 0 7.5-3.37 7.5-7.5 0-4.14-3.36-7.5-7.49-7.5-.01-.01-.01-.01-.01-.01v-14.99h482v15h-452c-4.14 0-7.5 3.36-7.5 7.5 0 4.13 3.36 7.5 7.5 7.5h.02 451.98c8.27-.01 15-6.74 15-15v-15c0-8.27-6.73-15-15-15zm-61.795-46.92c0-2.068 1.683-3.75 3.75-3.75 4.143 0 7.5-3.358 7.5-7.5v-22.5h15v22.5c0 4.142 3.357 7.5 7.5 7.5 2.067 0 3.75 1.682 3.75 3.75v46.917h-37.5zm-82.5 0c0-2.068 1.683-3.75 3.75-3.75 4.143 0 7.5-3.358 7.5-7.5v-22.5h15v22.5c0 4.142 3.357 7.5 7.5 7.5 2.067 0 3.75 1.682 3.75 3.75v46.917h-37.5zm-104.47-33.75h59.47v80.667h-59.47zm-104.47 0h59.47v80.667h-59.47zm-104.47 0h59.47v80.667h-59.47z"/><path d="m497 311.33h-10.091v-53.163c0-12.407-10.094-22.5-22.5-22.5h-34.47c-5.758 0-11.016 2.177-15 5.748-3.984-3.571-9.242-5.748-15-5.748h-34.469c-5.758 0-11.016 2.177-15 5.748-3.984-3.571-9.242-5.748-15-5.748h-34.47c-12.406 0-22.5 10.093-22.5 22.5v53.163h-15v-73.164c0-12.407-10.093-22.5-22.5-22.5h-44.47c-5.758 0-11.016 2.177-15 5.747-3.984-3.571-9.242-5.747-15-5.747h-44.47c-5.758 0-11.016 2.177-15 5.747-3.984-3.571-9.242-5.747-15-5.747h-44.47c-12.407 0-22.5 10.093-22.5 22.5v73.164h-10.09c-8.27.01-15 6.74-15 15v15c0 8.27 6.73 15 15 15h452c4.14 0 7.5-3.36 7.5-7.5 0-4.13-3.36-7.5-7.5-7.5h-452v-15h17.523c.023 0 .045.003.068.003h74.47 74.47 74.47c.023 0 .045-.003.068-.003h29.865c.023 0 .045.003.068.003h64.47 64.469 64.47c.023 0 .045-.003.068-.003h17.521v15c-4.141 0-7.5 3.37-7.5 7.5 0 4.14 3.359 7.5 7.5 7.5 7.729-.01 14.14-5.8 14.92-13.47.01-.08.02-.17.03-.25.029-.44.05-.87.05-1.28v-15c0-8.26-6.73-14.99-15-15zm-67.061-60.663h34.47c4.136 0 7.5 3.364 7.5 7.5v53.163h-49.47v-53.163c0-4.135 3.365-7.5 7.5-7.5zm-64.468 0h34.469c4.136 0 7.5 3.364 7.5 7.5v53.163h-49.469v-53.163c0-4.135 3.364-7.5 7.5-7.5zm-71.97 7.5c0-4.136 3.364-7.5 7.5-7.5h34.47c4.136 0 7.5 3.364 7.5 7.5v53.163h-49.47zm-96.97-27.5h44.47c4.136 0 7.5 3.364 7.5 7.5v73.164h-59.47v-73.164c0-4.136 3.364-7.5 7.5-7.5zm-74.47 0h44.47c4.136 0 7.5 3.364 7.5 7.5v73.164h-59.47v-73.164c0-4.136 3.364-7.5 7.5-7.5zm-81.97 7.5c0-4.136 3.364-7.5 7.5-7.5h44.47c4.136 0 7.5 3.364 7.5 7.5v73.164h-59.47z"/></g></g></svg>